<?xml version="1.0" encoding="UTF-8" standalone="no"?>
<svg
   height="40"
   viewBox="0 0 48 40"
   width="48"
   version="1.1"
   id="svg9"
   sodipodi:docname="shape.svg"
   inkscape:version="1.2.2 (b0a8486541, 2022-12-01)"
   xmlns:inkscape="http://www.inkscape.org/namespaces/inkscape"
   xmlns:sodipodi="http://sodipodi.sourceforge.net/DTD/sodipodi-0.dtd"
   xmlns="http://www.w3.org/2000/svg"
   xmlns:svg="http://www.w3.org/2000/svg"
   xmlns:rdf="http://www.w3.org/1999/02/22-rdf-syntax-ns#"
   xmlns:cc="http://creativecommons.org/ns#"
   xmlns:dc="http://purl.org/dc/elements/1.1/">
  <metadata
     id="metadata15">
    <rdf:RDF>
      <cc:Work
         rdf:about="">
        <dc:format>image/svg+xml</dc:format>
        <dc:type
           rdf:resource="http://purl.org/dc/dcmitype/StillImage" />
      </cc:Work>
    </rdf:RDF>
  </metadata>
  <defs
     id="defs13" />
  <sodipodi:namedview
     pagecolor="#ffffff"
     bordercolor="#666666"
     borderopacity="1"
     objecttolerance="10"
     gridtolerance="10"
     guidetolerance="10"
     inkscape:pageopacity="0"
     inkscape:pageshadow="2"
     inkscape:window-width="2560"
     inkscape:window-height="1011"
     id="namedview11"
     showgrid="false"
     inkscape:zoom="5.9"
     inkscape:cx="93.728814"
     inkscape:cy="28.983051"
     inkscape:window-x="1920"
     inkscape:window-y="32"
     inkscape:window-maximized="1"
     inkscape:current-layer="svg9"
     inkscape:showpageshadow="2"
     inkscape:pagecheckerboard="0"
     inkscape:deskcolor="#d1d1d1" />
  <linearGradient
     id="a"
     gradientUnits="objectBoundingBox"
     x1="4.639"
     x2="4.626"
     y1="6.951"
     y2="6.951">
    <stop
       offset="0"
       stop-color="#9166fe"
       id="stop2" />
    <stop
       offset="1"
       stop-color="#c97aed"
       id="stop4" />
  </linearGradient>
  <path
     style="fill:#800000;stroke-width:0.16949153"
     d="m 37.96417,-1.337159 c -3.404068,-0.1655001 -6.141402,2.3941861 -8.193856,4.8166049 -2.677788,3.0583483 -4.11203,7.1757361 -7.524827,9.5676641 -3.573695,2.461222 -8.110832,1.699144 -12.178893,1.403271 -2.5313499,-0.158593 -5.6240559,-0.22837 -7.3434189,1.991856 -2.53664698,3.578813 -2.78619998,8.398461 -1.583025,12.517546 1.217089,4.457781 5.053348,7.872301 9.4828819,8.984898 7.111711,1.872734 14.697824,0.132542 21.210643,-2.951066 6.608581,-3.216363 12.66928,-8.249666 15.791512,-15.027477 C 49.434819,15.110354 48.470445,9.5883308 46.216951,5.0452562 44.75536,2.2292161 42.470422,-0.55693349 39.250916,-1.3024 38.82376,-1.349549 38.392995,-1.335811 37.96417,-1.337159 Z"
     id="path27"
     inkscape:connector-curvature="0" />
</svg>
